<svg width="611" height="518" viewBox="0 0 611 518" fill="none" xmlns="http://www.w3.org/2000/svg">
<g filter="url(#filter0_d)">
<rect x="20" y="21" width="362" height="354.166" rx="10" fill="#E5E7F9"/>
<ellipse cx="65" cy="64.4755" rx="10" ry="10.6038" fill="#D0B89C"/>
<ellipse cx="99" cy="64.4755" rx="10" ry="10.6038" fill="#D0B89C"/>
<ellipse cx="133" cy="64.4755" rx="10" ry="10.6038" fill="#D0B89C"/>
<ellipse cx="167" cy="64.4755" rx="10" ry="10.6038" fill="#D0B89C"/>
<ellipse cx="201" cy="64.4755" rx="10" ry="10.6038" fill="#D0B89C"/>
<ellipse cx="235" cy="64.4755" rx="10" ry="10.6038" fill="#D0B89C"/>
<ellipse cx="269" cy="64.4755" rx="10" ry="10.6038" fill="#D0B89C"/>
<ellipse cx="303" cy="64.4755" rx="10" ry="10.6038" fill="#D0B89C"/>
<ellipse cx="337" cy="64.4755" rx="10" ry="10.6038" fill="#D0B89C"/>
<ellipse cx="65" cy="331.691" rx="10" ry="10.6038" fill="#D0B89C"/>
<ellipse cx="99" cy="331.691" rx="10" ry="10.6038" fill="#D0B89C"/>
<ellipse cx="133" cy="331.691" rx="10" ry="10.6038" fill="#D0B89C"/>
<ellipse cx="167" cy="331.691" rx="10" ry="10.6038" fill="#D0B89C"/>
<ellipse cx="201" cy="331.691" rx="10" ry="10.6038" fill="#D0B89C"/>
<ellipse cx="235" cy="331.691" rx="10" ry="10.6038" fill="#D0B89C"/>
<ellipse cx="269" cy="331.691" rx="10" ry="10.6038" fill="#D0B89C"/>
<ellipse cx="303" cy="331.691" rx="10" ry="10.6038" fill="#D0B89C"/>
<ellipse cx="337" cy="331.691" rx="10" ry="10.6038" fill="#D0B89C"/>
<ellipse cx="65" cy="293.517" rx="10" ry="10.6038" fill="#D0B89C"/>
<ellipse cx="99" cy="293.517" rx="10" ry="10.6038" fill="#D0B89C"/>
<ellipse cx="133" cy="293.517" rx="10" ry="10.6038" fill="#D0B89C"/>
<ellipse cx="167" cy="293.517" rx="10" ry="10.6038" fill="#D0B89C"/>
<ellipse cx="201" cy="293.517" rx="10" ry="10.6038" fill="#D0B89C"/>
<ellipse cx="235" cy="293.517" rx="10" ry="10.6038" fill="#D0B89C"/>
<ellipse cx="269" cy="293.517" rx="10" ry="10.6038" fill="#D0B89C"/>
<ellipse cx="303" cy="293.517" rx="10" ry="10.6038" fill="#D0B89C"/>
<ellipse cx="337" cy="293.517" rx="10" ry="10.6038" fill="#D0B89C"/>
<ellipse cx="65" cy="255.343" rx="10" ry="10.6038" fill="#D0B89C"/>
<ellipse cx="99" cy="255.343" rx="10" ry="10.6038" fill="#D0B89C"/>
<ellipse cx="133" cy="255.343" rx="10" ry="10.6038" fill="#D0B89C"/>
<ellipse cx="167" cy="255.343" rx="10" ry="10.6038" fill="#D0B89C"/>
<ellipse cx="201" cy="255.343" rx="10" ry="10.6038" fill="#D0B89C"/>
<ellipse cx="235" cy="255.343" rx="10" ry="10.6038" fill="#D0B89C"/>
<ellipse cx="269" cy="255.343" rx="10" ry="10.6038" fill="#D0B89C"/>
<ellipse cx="303" cy="255.343" rx="10" ry="10.6038" fill="#D0B89C"/>
<ellipse cx="337" cy="255.343" rx="10" ry="10.6038" fill="#D0B89C"/>
<ellipse cx="65" cy="217.17" rx="10" ry="10.6038" fill="#D0B89C"/>
<ellipse cx="99" cy="217.17" rx="10" ry="10.6038" fill="#D0B89C"/>
<ellipse cx="133" cy="217.17" rx="10" ry="10.6038" fill="#D0B89C"/>
<ellipse cx="167" cy="217.17" rx="10" ry="10.6038" fill="#D0B89C"/>
<ellipse cx="201" cy="217.17" rx="10" ry="10.6038" fill="#D0B89C"/>
<ellipse cx="235" cy="217.17" rx="10" ry="10.6038" fill="#D0B89C"/>
<ellipse cx="269" cy="217.17" rx="10" ry="10.6038" fill="#D0B89C"/>
<ellipse cx="303" cy="217.17" rx="10" ry="10.6038" fill="#D0B89C"/>
<ellipse cx="337" cy="217.17" rx="10" ry="10.6038" fill="#D0B89C"/>
<ellipse cx="65" cy="178.996" rx="10" ry="10.6038" fill="#D0B89C"/>
<ellipse cx="99" cy="178.996" rx="10" ry="10.6038" fill="#D0B89C"/>
<ellipse cx="133" cy="178.996" rx="10" ry="10.6038" fill="#D0B89C"/>
<ellipse cx="167" cy="178.996" rx="10" ry="10.6038" fill="#D0B89C"/>
<ellipse cx="201" cy="178.996" rx="10" ry="10.6038" fill="#D0B89C"/>
<ellipse cx="235" cy="178.996" rx="10" ry="10.6038" fill="#D0B89C"/>
<ellipse cx="269" cy="178.996" rx="10" ry="10.6038" fill="#D0B89C"/>
<ellipse cx="303" cy="178.996" rx="10" ry="10.6038" fill="#D0B89C"/>
<ellipse cx="337" cy="178.996" rx="10" ry="10.6038" fill="#D0B89C"/>
<ellipse cx="65" cy="102.649" rx="10" ry="10.6038" fill="#D0B89C"/>
<ellipse cx="99" cy="102.649" rx="10" ry="10.6038" fill="#D0B89C"/>
<ellipse cx="133" cy="102.649" rx="10" ry="10.6038" fill="#D0B89C"/>
<ellipse cx="167" cy="102.649" rx="10" ry="10.6038" fill="#D0B89C"/>
<ellipse cx="201" cy="102.649" rx="10" ry="10.6038" fill="#D0B89C"/>
<ellipse cx="235" cy="102.649" rx="10" ry="10.6038" fill="#D0B89C"/>
<ellipse cx="269" cy="102.649" rx="10" ry="10.6038" fill="#D0B89C"/>
<ellipse cx="303" cy="102.649" rx="10" ry="10.6038" fill="#D0B89C"/>
<ellipse cx="337" cy="102.649" rx="10" ry="10.6038" fill="#D0B89C"/>
<ellipse cx="65" cy="140.823" rx="10" ry="10.6038" fill="#D0B89C"/>
<ellipse cx="99" cy="140.823" rx="10" ry="10.6038" fill="#D0B89C"/>
<ellipse cx="133" cy="140.823" rx="10" ry="10.6038" fill="#D0B89C"/>
<ellipse cx="167" cy="140.823" rx="10" ry="10.6038" fill="#D0B89C"/>
<ellipse cx="201" cy="140.823" rx="10" ry="10.6038" fill="#D0B89C"/>
<ellipse cx="235" cy="140.823" rx="10" ry="10.6038" fill="#D0B89C"/>
<ellipse cx="269" cy="140.823" rx="10" ry="10.6038" fill="#D0B89C"/>
<ellipse cx="303" cy="140.823" rx="10" ry="10.6038" fill="#D0B89C"/>
<ellipse cx="337" cy="140.823" rx="10" ry="10.6038" fill="#D0B89C"/>
</g>
<g filter="url(#filter1_d)">
<rect x="81" y="102" width="509" height="395" rx="20" fill="white"/>
</g>
<g filter="url(#filter2_d)">
<path d="M488.362 165.425C521.147 165.425 547.724 137.348 547.724 102.713C547.724 68.0774 521.147 40 488.362 40C455.577 40 429 68.0774 429 102.713C429 137.348 455.577 165.425 488.362 165.425Z" fill="#D6974D"/>
<path d="M487.213 145.879C491.07 145.879 494.198 142.575 494.198 138.5C494.198 134.425 491.07 131.121 487.213 131.121C483.355 131.121 480.228 134.425 480.228 138.5C480.228 142.575 483.355 145.879 487.213 145.879Z" fill="white"/>
<path d="M486.464 61.5009C481.199 61.5561 476.161 63.78 472.424 67.6992C468.687 71.6185 466.545 76.9237 466.455 82.4859C466.453 82.5924 466.453 83.341 466.453 84.3201C466.453 85.7558 466.993 87.1326 467.953 88.1478C468.914 89.1629 470.217 89.7333 471.576 89.7335C472.936 89.7332 474.24 89.1622 475.202 88.1461C476.163 87.13 476.703 85.752 476.703 84.3153V84.3118C476.702 83.6458 476.702 83.1848 476.702 83.1565C476.702 81.3743 477.14 79.6226 477.975 78.0739C478.81 76.5252 480.012 75.2328 481.463 74.3237C482.914 73.4146 484.564 72.9203 486.251 72.8892C487.938 72.8582 489.603 73.2916 491.083 74.1467C492.563 75.0018 493.807 76.2493 494.692 77.7664C495.578 79.2834 496.074 81.0178 496.132 82.799C496.191 84.5801 495.809 86.3466 495.026 87.9248C494.242 89.5029 493.082 90.8383 491.662 91.7996L491.664 91.8019C491.664 91.8019 484.371 96.7618 482.147 103.566L482.149 103.566C481.758 104.96 481.56 106.407 481.561 107.86C481.561 108.458 481.594 113.687 481.659 117.931C481.681 119.395 482.248 120.792 483.236 121.819C484.224 122.846 485.555 123.421 486.941 123.421C487.635 123.421 488.322 123.276 488.963 122.996C489.604 122.715 490.187 122.304 490.677 121.786C491.168 121.267 491.557 120.652 491.823 119.975C492.088 119.298 492.225 118.572 492.225 117.839L492.225 117.805C492.202 113.918 492.19 109.392 492.19 109.064C492.19 104.886 496.005 100.723 499.139 98.0082C502.767 94.9045 505.316 90.6164 506.388 85.8167C506.619 84.8274 506.746 83.8142 506.767 82.7955C506.767 79.999 506.246 77.2299 505.233 74.6462C504.22 72.0626 502.735 69.715 500.863 67.7376C498.992 65.7602 496.769 64.1916 494.324 63.1214C491.878 62.0512 489.257 61.5004 486.61 61.5004C486.561 61.5004 486.513 61.5006 486.464 61.5009Z" fill="white"/>
</g>
<defs>
<filter id="filter0_d" x="0" y="0" width="388" height="380.166" filterUnits="userSpaceOnUse" color-interpolation-filters="sRGB">
<feFlood flood-opacity="0" result="BackgroundImageFix"/>
<feColorMatrix in="SourceAlpha" type="matrix" values="0 0 0 0 0 0 0 0 0 0 0 0 0 0 0 0 0 0 127 0"/>
<feOffset dx="-7" dy="-8"/>
<feGaussianBlur stdDeviation="6.5"/>
<feColorMatrix type="matrix" values="0 0 0 0 0 0 0 0 0 0 0 0 0 0 0 0 0 0 0.25 0"/>
<feBlend mode="normal" in2="BackgroundImageFix" result="effect1_dropShadow"/>
<feBlend mode="normal" in="SourceGraphic" in2="effect1_dropShadow" result="shape"/>
</filter>
<filter id="filter1_d" x="60" y="81" width="551" height="437" filterUnits="userSpaceOnUse" color-interpolation-filters="sRGB">
<feFlood flood-opacity="0" result="BackgroundImageFix"/>
<feColorMatrix in="SourceAlpha" type="matrix" values="0 0 0 0 0 0 0 0 0 0 0 0 0 0 0 0 0 0 127 0"/>
<feMorphology radius="8" operator="dilate" in="SourceAlpha" result="effect1_dropShadow"/>
<feOffset/>
<feGaussianBlur stdDeviation="6.5"/>
<feColorMatrix type="matrix" values="0 0 0 0 0 0 0 0 0 0 0 0 0 0 0 0 0 0 0.25 0"/>
<feBlend mode="normal" in2="BackgroundImageFix" result="effect1_dropShadow"/>
<feBlend mode="normal" in="SourceGraphic" in2="effect1_dropShadow" result="shape"/>
</filter>
<filter id="filter2_d" x="423" y="35" width="138.724" height="145.425" filterUnits="userSpaceOnUse" color-interpolation-filters="sRGB">
<feFlood flood-opacity="0" result="BackgroundImageFix"/>
<feColorMatrix in="SourceAlpha" type="matrix" values="0 0 0 0 0 0 0 0 0 0 0 0 0 0 0 0 0 0 127 0"/>
<feOffset dx="4" dy="5"/>
<feGaussianBlur stdDeviation="5"/>
<feColorMatrix type="matrix" values="0 0 0 0 0 0 0 0 0 0 0 0 0 0 0 0 0 0 0.25 0"/>
<feBlend mode="normal" in2="BackgroundImageFix" result="effect1_dropShadow"/>
<feBlend mode="normal" in="SourceGraphic" in2="effect1_dropShadow" result="shape"/>
</filter>
</defs>
</svg>
