<svg width="18" height="13" viewBox="0 0 18 13" fill="none" xmlns="http://www.w3.org/2000/svg">
<path d="M16.418 0H1.58203C0.709699 0 0 0.709699 0 1.58203V10.7501C0 11.6225 0.709699 12.3322 1.58203 12.3322H16.418C17.2903 12.3322 18 11.6225 18 10.7501V1.58203C18 0.709699 17.2903 0 16.418 0ZM16.2115 1.05469L16.0003 1.2305L9.62768 6.53702C9.26395 6.83986 8.73598 6.83986 8.37232 6.53702L1.99965 1.2305L1.7885 1.05469H16.2115ZM1.05469 1.8161L6.24698 6.13972L1.05469 9.59534V1.8161ZM16.418 11.2775H1.58203C1.32722 11.2775 1.1141 11.0958 1.06527 10.8552L7.09263 6.84387L7.69746 7.34752C8.07483 7.66174 8.53745 7.81885 9.00004 7.81885C9.46262 7.81885 9.92521 7.66174 10.3026 7.34752L10.9074 6.84387L16.9348 10.8552C16.8859 11.0958 16.6728 11.2775 16.418 11.2775ZM16.9453 9.59534L11.753 6.13976L16.9453 1.8161V9.59534Z" fill="white"/>
</svg>
