<svg width="18" height="17" viewBox="0 0 18 17" fill="none" xmlns="http://www.w3.org/2000/svg">
<path d="M15.8906 0H2.10938C0.946266 0 0 0.893695 0 1.99219V15.0078C0 16.1063 0.946266 17 2.10938 17H15.8906C17.0537 17 18 16.1063 18 15.0078V1.99219C18 0.893695 17.0537 0 15.8906 0ZM16.5938 15.0078C16.5938 15.374 16.2783 15.6719 15.8906 15.6719H11.8828V10.2598H14.0551L14.4141 8.20117H11.8828V6.77344C11.8828 6.20981 12.3407 5.77734 12.9375 5.77734H14.3789V3.71875H12.9375C11.1472 3.71875 9.7039 5.08838 9.7039 6.77921V8.20117H7.59375V10.2598H9.7039V15.6719H2.10938C1.72167 15.6719 1.40625 15.374 1.40625 15.0078V1.99219C1.40625 1.62602 1.72167 1.32812 2.10938 1.32812H15.8906C16.2783 1.32812 16.5938 1.62602 16.5938 1.99219V15.0078Z" fill="white"/>
</svg>
