<svg width="18" height="17" viewBox="0 0 18 17" fill="none" xmlns="http://www.w3.org/2000/svg">
<path d="M13.2463 0H4.75374C2.088 0 0 1.972 0 4.48965V12.5104C0 15.028 2.088 17 4.75374 17H13.2463C15.912 17 18 15.028 18 12.5104V4.48965C18 1.972 15.9114 0 13.2463 0ZM16.8387 12.5104C16.8387 14.4133 15.2605 15.9032 13.2463 15.9032H4.75374C2.73948 15.9032 1.16129 14.4127 1.16129 12.5104V4.48965C1.16129 2.58729 2.73948 1.09677 4.75374 1.09677H13.2463C15.2611 1.09677 16.8387 2.58729 16.8387 4.48965V12.5104Z" fill="white"/>
<path d="M14.6607 4.34033C14.4743 4.21146 14.2247 4.20049 14.0255 4.31017C13.8269 4.42039 13.3868 4.47468 13.0338 4.51855C12.9606 4.52788 12.8886 4.53665 12.8189 4.54597C12.3248 4.15881 11.6936 3.94165 11.0427 3.94165C9.5766 3.94165 8.37351 5.0132 8.28815 6.36113C6.95847 6.14946 5.74086 5.49468 4.87802 4.51088C4.7497 4.36391 4.55054 4.29207 4.34963 4.31675C4.14989 4.34307 3.97918 4.46536 3.89847 4.63975C3.86131 4.71981 3.53731 5.47275 3.53731 7.33507C3.53731 8.94788 4.88499 10.1329 5.80938 10.7565C5.17705 11.0279 4.44834 11.1277 3.75621 11.0553C3.48563 11.0279 3.23247 11.1782 3.14305 11.4189C3.05363 11.6602 3.15234 11.9278 3.38112 12.0644C4.47273 12.7147 5.73447 13.0586 7.03047 13.0586C11.1925 13.0586 13.7114 9.97062 13.8049 6.92597C13.9245 6.76201 14.1527 6.44284 14.5382 5.88294C14.6927 5.65755 14.8222 5.17168 14.8854 4.90242C14.936 4.68965 14.8471 4.46865 14.6607 4.34033ZM12.7574 6.42749C12.686 6.52071 12.6471 6.63368 12.6471 6.74884C12.6471 8.91333 10.9045 11.9618 7.03105 11.9618C6.68092 11.9618 6.3337 11.9317 5.99344 11.8724C6.44751 11.7101 6.8766 11.4836 7.27086 11.1968C7.4288 11.0822 7.51299 10.8979 7.49441 10.7109C7.47583 10.5239 7.3568 10.3583 7.17854 10.2733C7.15357 10.2613 4.69918 9.0422 4.69918 7.33562C4.69918 6.76365 4.7317 6.31397 4.77467 5.97178C5.91447 6.89855 7.36492 7.45297 8.89144 7.52426C8.90305 7.52481 8.91525 7.52536 8.92628 7.52481C9.26422 7.51549 9.51273 7.28133 9.51273 6.97642C9.51273 6.90075 9.49647 6.82891 9.46686 6.7631C9.45234 6.68084 9.4448 6.59804 9.4448 6.51523C9.4448 5.70088 10.1613 5.03842 11.0427 5.03842C11.4852 5.03842 11.9108 5.20952 12.211 5.5073C12.348 5.6422 12.5483 5.70307 12.7417 5.66742C12.8735 5.64384 13.0256 5.6252 13.1853 5.60546C13.2422 5.59833 13.2997 5.5912 13.3583 5.58352C12.9223 6.21088 12.7649 6.41762 12.7574 6.42749Z" fill="white"/>
</svg>
